<svg width="10" height="25" viewBox="0 0 10 25" fill="none" xmlns="http://www.w3.org/2000/svg">
<path d="M2.52013 0.560904C2.5506 0.398927 2.61384 0.256733 2.70036 0.155616C2.78689 0.0544987 2.89205 -9.87229e-05 3.0001 1.3401e-07H6.99984C7.07902 9.4047e-05 7.15706 0.0295701 7.22752 0.0860018C7.29798 0.142433 7.35886 0.224207 7.40514 0.32459C7.45142 0.424974 7.48178 0.541097 7.49372 0.663399C7.50566 0.785701 7.49884 0.910686 7.47381 1.02806L5.69393 9.37444H9.49968C9.59331 9.37434 9.68508 9.41532 9.76453 9.49271C9.84398 9.57011 9.90793 9.68081 9.94909 9.81221C9.99025 9.94361 10.007 10.0904 9.99735 10.2359C9.98773 10.3815 9.95215 10.5198 9.89466 10.6353L2.89511 24.697C2.8234 24.8417 2.72144 24.9425 2.60703 24.9818C2.49261 25.0211 2.373 24.9963 2.26906 24.9119C2.16513 24.8274 2.08348 24.6886 2.03835 24.5197C1.99323 24.3508 1.9875 24.1625 2.02216 23.9876L3.82305 14.8429H0.500261C0.42253 14.8429 0.34586 14.8147 0.276339 14.7604C0.206818 14.706 0.146361 14.6271 0.099769 14.5299C0.0531774 14.4327 0.0217348 14.3198 0.00793838 14.2003C-0.00585809 14.0808 -0.00162848 13.9579 0.0202915 13.8414L2.52013 0.560904Z" fill="white"/>
</svg>
