<svg width="13" height="17" viewBox="0 0 13 17" fill="none" xmlns="http://www.w3.org/2000/svg">
<path fill-rule="evenodd" clip-rule="evenodd" d="M0.504228 2.11036L9.92578 8.5L0.504227 14.8896C0.380502 14.9736 0.274233 15.0814 0.19149 15.2071C0.108749 15.3328 0.0511514 15.4738 0.021989 15.6222C-0.00717343 15.7705 -0.00732889 15.9232 0.0215283 16.0716C0.0503855 16.22 0.107692 16.3612 0.190175 16.4871C0.272659 16.6129 0.378705 16.721 0.502257 16.8052C0.625811 16.8894 0.76445 16.948 0.910262 16.9776C1.05607 17.0073 1.2062 17.0075 1.35207 16.9781C1.49795 16.9487 1.63671 16.8904 1.76043 16.8065L12.4407 9.56324C12.6128 9.44653 12.7538 9.28843 12.8514 9.10295C12.949 8.91747 13 8.71036 13 8.5C13 8.28964 12.949 8.08253 12.8514 7.89705C12.7538 7.71157 12.6128 7.55347 12.4407 7.43676L1.76044 0.193463C1.63671 0.109553 1.49795 0.0512552 1.35208 0.0218991C1.2062 -0.00745687 1.05608 -0.00729857 0.910264 0.0223683C0.764452 0.0520352 0.625812 0.110627 0.502259 0.1948C0.378706 0.278973 0.272661 0.38708 0.190176 0.512944C0.107693 0.63881 0.0503869 0.779969 0.0215296 0.928365C-0.00732761 1.07676 -0.00717218 1.22948 0.0219902 1.37782C0.0511526 1.52615 0.10875 1.66719 0.191491 1.79288C0.274234 1.91857 0.380503 2.02645 0.504228 2.11036Z" fill="#26364D"/>
</svg>
