<svg width="28" height="28" viewBox="0 0 28 28" fill="none" xmlns="http://www.w3.org/2000/svg">
<path d="M12.1219 3.88937e-07C11.8282 0.000156389 11.5777 0.212904 11.5301 0.502734L10.9465 4.07578C10.2447 4.27992 9.57558 4.55536 8.94492 4.89844L5.99649 2.79257C5.75812 2.62236 5.4317 2.64911 5.22422 2.85586L2.88985 5.18789C2.68393 5.39395 2.65576 5.71814 2.82305 5.95664L4.89727 8.92382C4.5489 9.55816 4.26736 10.2311 4.0582 10.9395L0.500389 11.5312C0.211489 11.5799 -3.49994e-05 11.8301 1.00061e-06 12.123V15.423C-0.000526999 15.7142 0.207961 15.9636 0.494533 16.0148L4.05469 16.6453C4.26271 17.3524 4.54246 18.0258 4.89141 18.6609L2.79141 21.5988C2.62119 21.8372 2.64794 22.1636 2.85469 22.3711L5.18789 24.7055C5.39348 24.9111 5.71694 24.9398 5.95547 24.7734L8.92852 22.6922C9.56103 23.0373 10.2318 23.3148 10.9359 23.5207L11.5301 27.0984C11.5782 27.3878 11.8285 27.5999 12.1219 27.6H15.4219C15.7134 27.6004 15.963 27.3913 16.0137 27.1043L16.65 23.5125C17.3512 23.3034 18.0189 23.0218 18.6481 22.6746L21.641 24.7746C21.8795 24.9419 22.2037 24.9137 22.4098 24.7078L24.743 22.3723C24.9506 22.1641 24.9769 21.8362 24.8051 21.5977L22.6711 18.6352C23.0123 18.009 23.2872 17.3453 23.4914 16.6488L27.102 16.016C27.389 15.9653 27.5981 15.7157 27.5977 15.4242V12.1242C27.5975 11.8305 27.3848 11.5801 27.0949 11.5324L23.4902 10.943C23.2846 10.2473 23.009 9.58483 22.6676 8.95898L24.7723 5.96015C24.9396 5.72165 24.9114 5.39746 24.7055 5.1914L22.3711 2.8582C22.163 2.65052 21.835 2.62423 21.5965 2.79608L18.6422 4.9207C18.0127 4.57488 17.3447 4.29479 16.6418 4.08749L16.0137 0.496872C15.9635 0.20937 15.7137 -0.000329611 15.4219 3.88937e-07H12.1219ZM12.6328 1.2H14.918L15.5156 4.61133C15.5563 4.84508 15.7308 5.03294 15.9609 5.09063C16.8384 5.3093 17.6626 5.65593 18.4148 6.11133C18.6204 6.2359 18.8805 6.22575 19.0758 6.08555L21.8836 4.06758L23.4996 5.6836L21.5004 8.53243C21.364 8.72659 21.3548 8.9829 21.477 9.18633C21.9278 9.93688 22.2698 10.7558 22.4883 11.6285C22.5464 11.8608 22.7371 12.0363 22.9734 12.075L26.3977 12.6352V14.9203L22.9664 15.5227C22.7325 15.5641 22.545 15.7396 22.4883 15.9703C22.2724 16.8419 21.9302 17.6608 21.4793 18.4113C21.3556 18.6169 21.3662 18.8763 21.5063 19.0711L23.5336 21.8848L21.9176 23.5019L19.0734 21.5062C18.8783 21.3695 18.6207 21.3613 18.4172 21.4851C17.6687 21.9405 16.8437 22.2888 15.9691 22.5105C15.7401 22.5683 15.5663 22.755 15.525 22.9875L14.9191 26.4H12.6305L12.0656 23.0027C12.0263 22.7665 11.8504 22.5763 11.618 22.5187C10.7399 22.3023 9.91209 21.9562 9.15469 21.5016C8.95155 21.3799 8.69586 21.3891 8.50196 21.525L5.68009 23.5019L4.0629 21.8824L6.05743 19.0945C6.19676 18.8993 6.20644 18.6398 6.08205 18.4348C5.62243 17.6753 5.27484 16.8475 5.05548 15.9656C4.99815 15.7362 4.81138 15.5618 4.57853 15.5203L1.20001 14.9203V12.6316L4.57618 12.0703C4.81206 12.0312 5.0022 11.8558 5.06017 11.6238C5.28141 10.7389 5.62884 9.91123 6.08673 9.15351C6.2101 8.95025 6.20183 8.69332 6.06564 8.49842L4.09454 5.68124L5.7129 4.06405L8.51017 6.06327C8.70465 6.20194 8.96285 6.21207 9.16759 6.08905C9.92098 5.63656 10.7508 5.29324 11.6297 5.07772C11.8633 5.02022 12.0399 4.82881 12.0785 4.59139L12.6328 1.2ZM13.7988 9C11.155 9 8.99883 11.1561 8.99883 13.8C8.99883 16.4439 11.155 18.6 13.7988 18.6C16.4427 18.6 18.5988 16.4439 18.5988 13.8C18.5988 11.1561 16.4427 9 13.7988 9ZM13.7988 10.2C15.7942 10.2 17.3988 11.8047 17.3988 13.8C17.3988 15.7953 15.7942 17.4 13.7988 17.4C11.8035 17.4 10.1988 15.7953 10.1988 13.8C10.1988 11.8047 11.8035 10.2 13.7988 10.2Z" fill="#26364D"/>
</svg>
