<svg width="26" height="22" viewBox="0 0 26 22" fill="none" xmlns="http://www.w3.org/2000/svg">
<path d="M25.1875 1.625V6.3125C25.1875 6.56114 25.0887 6.7996 24.9129 6.97541C24.7371 7.15123 24.4986 7.25 24.25 7.25C24.0014 7.25 23.7629 7.15123 23.5871 6.97541C23.4113 6.7996 23.3125 6.56114 23.3125 6.3125V2.5625H19.5625C19.3139 2.5625 19.0754 2.46373 18.8996 2.28791C18.7238 2.1121 18.625 1.87364 18.625 1.625C18.625 1.37636 18.7238 1.1379 18.8996 0.962088C19.0754 0.786272 19.3139 0.6875 19.5625 0.6875H24.25C24.4986 0.6875 24.7371 0.786272 24.9129 0.962088C25.0887 1.1379 25.1875 1.37636 25.1875 1.625ZM6.4375 19.4375H2.6875V15.6875C2.6875 15.4389 2.58873 15.2004 2.41291 15.0246C2.2371 14.8488 1.99864 14.75 1.75 14.75C1.50136 14.75 1.2629 14.8488 1.08709 15.0246C0.911272 15.2004 0.8125 15.4389 0.8125 15.6875V20.375C0.8125 20.6236 0.911272 20.8621 1.08709 21.0379C1.2629 21.2137 1.50136 21.3125 1.75 21.3125H6.4375C6.68614 21.3125 6.9246 21.2137 7.10041 21.0379C7.27623 20.8621 7.375 20.6236 7.375 20.375C7.375 20.1264 7.27623 19.8879 7.10041 19.7121C6.9246 19.5363 6.68614 19.4375 6.4375 19.4375ZM24.25 14.75C24.0014 14.75 23.7629 14.8488 23.5871 15.0246C23.4113 15.2004 23.3125 15.4389 23.3125 15.6875V19.4375H19.5625C19.3139 19.4375 19.0754 19.5363 18.8996 19.7121C18.7238 19.8879 18.625 20.1264 18.625 20.375C18.625 20.6236 18.7238 20.8621 18.8996 21.0379C19.0754 21.2137 19.3139 21.3125 19.5625 21.3125H24.25C24.4986 21.3125 24.7371 21.2137 24.9129 21.0379C25.0887 20.8621 25.1875 20.6236 25.1875 20.375V15.6875C25.1875 15.4389 25.0887 15.2004 24.9129 15.0246C24.7371 14.8488 24.4986 14.75 24.25 14.75ZM1.75 7.25C1.99864 7.25 2.2371 7.15123 2.41291 6.97541C2.58873 6.7996 2.6875 6.56114 2.6875 6.3125V2.5625H6.4375C6.68614 2.5625 6.9246 2.46373 7.10041 2.28791C7.27623 2.1121 7.375 1.87364 7.375 1.625C7.375 1.37636 7.27623 1.1379 7.10041 0.962088C6.9246 0.786272 6.68614 0.6875 6.4375 0.6875H1.75C1.50136 0.6875 1.2629 0.786272 1.08709 0.962088C0.911272 1.1379 0.8125 1.37636 0.8125 1.625V6.3125C0.8125 6.56114 0.911272 6.7996 1.08709 6.97541C1.2629 7.15123 1.50136 7.25 1.75 7.25ZM7.375 5.375C7.12636 5.375 6.8879 5.47377 6.71209 5.64959C6.53627 5.8254 6.4375 6.06386 6.4375 6.3125V15.6875C6.4375 15.9361 6.53627 16.1746 6.71209 16.3504C6.8879 16.5262 7.12636 16.625 7.375 16.625C7.62364 16.625 7.8621 16.5262 8.03791 16.3504C8.21373 16.1746 8.3125 15.9361 8.3125 15.6875V6.3125C8.3125 6.06386 8.21373 5.8254 8.03791 5.64959C7.8621 5.47377 7.62364 5.375 7.375 5.375ZM19.5625 15.6875V6.3125C19.5625 6.06386 19.4637 5.8254 19.2879 5.64959C19.1121 5.47377 18.8736 5.375 18.625 5.375C18.3764 5.375 18.1379 5.47377 17.9621 5.64959C17.7863 5.8254 17.6875 6.06386 17.6875 6.3125V15.6875C17.6875 15.9361 17.7863 16.1746 17.9621 16.3504C18.1379 16.5262 18.3764 16.625 18.625 16.625C18.8736 16.625 19.1121 16.5262 19.2879 16.3504C19.4637 16.1746 19.5625 15.9361 19.5625 15.6875ZM14.875 5.375C14.6264 5.375 14.3879 5.47377 14.2121 5.64959C14.0363 5.8254 13.9375 6.06386 13.9375 6.3125V15.6875C13.9375 15.9361 14.0363 16.1746 14.2121 16.3504C14.3879 16.5262 14.6264 16.625 14.875 16.625C15.1236 16.625 15.3621 16.5262 15.5379 16.3504C15.7137 16.1746 15.8125 15.9361 15.8125 15.6875V6.3125C15.8125 6.06386 15.7137 5.8254 15.5379 5.64959C15.3621 5.47377 15.1236 5.375 14.875 5.375ZM11.125 5.375C10.8764 5.375 10.6379 5.47377 10.4621 5.64959C10.2863 5.8254 10.1875 6.06386 10.1875 6.3125V15.6875C10.1875 15.9361 10.2863 16.1746 10.4621 16.3504C10.6379 16.5262 10.8764 16.625 11.125 16.625C11.3736 16.625 11.6121 16.5262 11.7879 16.3504C11.9637 16.1746 12.0625 15.9361 12.0625 15.6875V6.3125C12.0625 6.06386 11.9637 5.8254 11.7879 5.64959C11.6121 5.47377 11.3736 5.375 11.125 5.375Z" fill="#26364D"/>
</svg>
