<svg width="30" height="31" viewBox="0 0 30 31" fill="none" xmlns="http://www.w3.org/2000/svg">
<path d="M0.800626 4.11319L3.07875 6.39132C5.19736 3.61771 8.21664 1.66948 11.6168 0.882014C15.017 0.0945458 18.5854 0.517109 21.7076 2.07696C24.8298 3.63681 27.3105 6.23635 28.7227 9.42808C30.1349 12.6198 30.3902 16.204 29.4447 19.5637C28.4991 22.9233 26.4119 25.8482 23.5423 27.8349C20.6727 29.8215 17.2003 30.7456 13.7228 30.448C10.2453 30.1504 6.98036 28.6498 4.49002 26.2045C1.99967 23.7592 0.439733 20.5222 0.0787507 17.0507C0.0404601 16.6795 0.151204 16.3082 0.386621 16.0187C0.622038 15.7291 0.962843 15.5449 1.33406 15.5066C1.70528 15.4683 2.07651 15.5791 2.36608 15.8145C2.65565 16.0499 2.83983 16.3907 2.87813 16.7619C3.17374 19.5977 4.45419 22.24 6.49669 24.2293C8.53919 26.2185 11.2145 27.4287 14.057 27.6493C16.8996 27.8699 19.7295 27.0869 22.0545 25.4366C24.3794 23.7862 26.0522 21.373 26.7817 18.6169C27.5112 15.8607 27.2514 12.9359 26.0474 10.3515C24.8433 7.7671 22.7713 5.68661 20.1919 4.47202C17.6124 3.25743 14.6888 2.98563 11.9296 3.70389C9.17045 4.42216 6.75044 6.08503 5.09063 8.40319L7.63688 10.9494C7.7026 11.015 7.74738 11.0986 7.76554 11.1896C7.78369 11.2807 7.77441 11.3751 7.73886 11.4608C7.70331 11.5466 7.6431 11.6198 7.56586 11.6713C7.48862 11.7228 7.39783 11.7502 7.305 11.7501H0.468751C0.344431 11.7501 0.225202 11.7007 0.137294 11.6128C0.0493868 11.5249 7.5061e-07 11.4056 7.5061e-07 11.2813V4.44507C-0.000165342 4.35224 0.0272363 4.26144 0.0787318 4.1842C0.130227 4.10696 0.203498 4.04675 0.289254 4.01121C0.37501 3.97566 0.46939 3.96637 0.56043 3.98453C0.651469 4.00269 0.735067 4.04747 0.800626 4.11319ZM14.5313 8.00007C14.9042 8.00007 15.2619 8.14822 15.5256 8.41195C15.7893 8.67567 15.9375 9.03336 15.9375 9.40632V15.0163L19.74 16.5388C20.0751 16.6849 20.3401 16.9557 20.479 17.2939C20.6178 17.632 20.6195 18.011 20.4837 18.3503C20.3479 18.6897 20.0852 18.9629 19.7515 19.1119C19.4177 19.261 19.039 19.2742 18.6956 19.1488L14.0081 17.2738C13.7476 17.1691 13.5243 16.9889 13.3669 16.7564C13.2096 16.5239 13.1253 16.2496 13.125 15.9688V9.40632C13.125 9.03336 13.2732 8.67567 13.5369 8.41195C13.8006 8.14822 14.1583 8.00007 14.5313 8.00007Z" fill="#213045"/>
</svg>
