<svg width="30" height="30" viewBox="0 0 30 30" fill="none" xmlns="http://www.w3.org/2000/svg">
<path d="M6.56086 13.1292C10.1787 13.1292 13.1217 10.1862 13.1217 6.56836C13.1217 2.95051 10.1787 0.00749803 6.56086 0.00749803C2.94301 0.00749803 0 2.95051 0 6.56836C0 10.1862 2.94301 13.1292 6.56086 13.1292ZM6.56086 3.75656C8.11672 3.75656 9.37266 5.0125 9.37266 6.56836C9.37266 8.12422 8.11672 9.38015 6.56086 9.38015C5.005 9.38015 3.74906 8.12422 3.74906 6.56836C3.74906 5.0125 5.005 3.75656 6.56086 3.75656ZM0.00374879 27.3438L27.3494 0L30 2.65059L2.65621 29.9944L0.00374879 27.3438ZM23.4316 16.8783C19.8138 16.8783 16.8708 19.8213 16.8708 23.4391C16.8708 27.057 19.8138 30 23.4316 30C27.0495 30 29.9925 27.057 29.9925 23.4391C29.9925 19.8213 27.0495 16.8783 23.4316 16.8783ZM23.4316 26.2509C21.8758 26.2509 20.6198 24.995 20.6198 23.4391C20.6198 21.8833 21.8758 20.6273 23.4316 20.6273C24.9875 20.6273 26.2434 21.8833 26.2434 23.4391C26.2434 24.995 24.9875 26.2509 23.4316 26.2509Z" fill="#213045"/>
</svg>
