<svg width="27" height="27" viewBox="0 0 27 27" fill="none" xmlns="http://www.w3.org/2000/svg">
<path d="M24.3751 7.875L19.5417 10.375M19.5417 10.375L18.9376 10.6875L13.5001 13.5M19.5417 10.375V14.75M19.5417 10.375L8.06258 4.125M13.5001 13.5L2.62508 7.875M13.5001 13.5V25.375M17.8235 2.7275L20.2402 4.04C22.8393 5.45125 24.1395 6.15625 24.862 7.425C25.5834 8.6925 25.5834 10.2713 25.5834 13.4275V13.5738C25.5834 16.7287 25.5834 18.3075 24.862 19.575C24.1395 20.8438 22.8393 21.55 20.2402 22.9613L17.8235 24.2725C15.7017 25.4238 14.6407 26 13.5001 26C12.3594 26 11.2985 25.425 9.17666 24.2725L6.76 22.96C4.16087 21.5488 2.86071 20.8438 2.13812 19.575C1.41675 18.3075 1.41675 16.7288 1.41675 13.575V13.4287C1.41675 10.2725 1.41675 8.69375 2.13812 7.42625C2.86071 6.1575 4.16087 5.45125 6.76 4.04125L9.17666 2.72875C11.2985 1.57625 12.3594 1 13.5001 1C14.6407 1 15.7017 1.575 17.8235 2.7275Z" stroke="#26364D" stroke-width="1.5" stroke-linecap="round"/>
</svg>
