<svg width="83" height="34" viewBox="0 0 83 34" fill="none" xmlns="http://www.w3.org/2000/svg">
<path d="M15.1657 4.38343C14.193 5.53173 12.6365 6.43775 11.08 6.3082C10.8855 4.75558 11.6474 3.10558 12.5392 2.08651C13.5118 0.905862 15.2143 0.0646929 16.5924 0C16.7545 1.61748 16.1221 3.20262 15.1657 4.38343ZM16.5762 6.61566C14.3226 6.48627 12.3933 7.89334 11.3232 7.89334C10.2371 7.89334 8.59945 6.68035 6.81608 6.7127C4.49776 6.74504 2.34138 8.05507 1.15782 10.1417C-1.27415 14.3149 0.52559 20.4939 2.87634 23.8906C4.02748 25.5728 5.40557 27.4167 7.22135 27.352C8.94004 27.2873 9.6209 26.236 11.6962 26.236C13.7876 26.236 14.3876 27.352 16.2033 27.3196C18.084 27.2873 19.2675 25.6376 20.4187 23.9553C21.7318 22.0467 22.2669 20.1864 22.2993 20.0894C22.2669 20.0571 18.6677 18.6823 18.6353 14.5413C18.6029 11.08 21.4725 9.43012 21.6022 9.33308C19.9808 6.93912 17.4517 6.68035 16.5762 6.61566ZM29.5952 1.92478V27.1419H33.5186V18.5206H38.9499C43.9109 18.5206 47.3967 15.1239 47.3967 10.2066C47.3967 5.28945 43.9758 1.92494 39.0796 1.92494L29.5952 1.92478ZM33.5186 5.2246H38.0419C41.4467 5.2246 43.3922 7.03616 43.3922 10.2226C43.3922 13.4091 41.4467 15.237 38.0257 15.237H33.5186V5.2246ZM54.5628 27.3358C57.0272 27.3358 59.3131 26.0905 60.3507 24.117H60.4318V27.1417H64.0635V14.5899C64.0635 10.9506 61.1452 8.60513 56.6542 8.60513C52.4875 8.60513 49.4071 10.9829 49.2936 14.2502H52.8281C53.1198 12.6974 54.5626 11.6784 56.5407 11.6784C58.9402 11.6784 60.2859 12.7945 60.2859 14.8488V16.2397L55.3895 16.5308C50.8338 16.8058 48.3696 18.666 48.3696 21.9011C48.3696 25.1684 50.9148 27.3358 54.5628 27.3358ZM55.6165 24.3435C53.5253 24.3435 52.1957 23.3407 52.1957 21.8039C52.1957 20.219 53.4765 19.2969 55.9247 19.1514L60.2859 18.8764V20.2997C60.2859 22.6613 58.2754 24.3435 55.6165 24.3435ZM68.9111 34C72.7373 34 74.5369 32.5444 76.1095 28.1285L83 8.84772H79.0116L74.391 23.7449H74.31L69.6894 8.84772H65.5875L72.2346 27.2064L71.878 28.3225C71.2782 30.215 70.3054 30.9429 68.5706 30.9429C68.2626 30.9429 67.6628 30.9106 67.4195 30.8782V33.903C67.6465 33.9677 68.6191 34 68.9111 34Z" fill="white"/>
</svg>
