<svg width="23" height="18" viewBox="0 0 23 18" fill="none" xmlns="http://www.w3.org/2000/svg">
<path d="M12.803 0.47965C13.1111 0.17253 13.5289 0 13.9645 0C14.4001 0 14.8179 0.17253 15.126 0.47965L22.519 7.85167C22.827 8.15888 23 8.57549 23 9.00989C23 9.44429 22.827 9.8609 22.519 10.1681L15.126 17.5401C14.8162 17.8385 14.4012 18.0037 13.9704 17.9999C13.5397 17.9962 13.1276 17.8239 12.823 17.5202C12.5184 17.2164 12.3456 16.8055 12.3419 16.376C12.3381 15.9465 12.5037 15.5327 12.803 15.2237L17.2503 10.6481H1.64288C1.20716 10.6481 0.789289 10.4755 0.481189 10.1683C0.173089 9.86106 0 9.44438 0 9.00989C0 8.57541 0.173089 8.15872 0.481189 7.85149C0.789289 7.54426 1.20716 7.37167 1.64288 7.37167H17.2503L12.803 2.7961C12.495 2.48889 12.322 2.07227 12.322 1.63788C12.322 1.20348 12.495 0.786863 12.803 0.47965Z" fill="black"/>
</svg>
