<svg width="40" height="40" viewBox="0 0 40 40" fill="none" xmlns="http://www.w3.org/2000/svg">
<path d="M14.2914 28.3208H33.8286C34.4807 28.3208 35.05 27.7851 35.05 27.0651C35.05 26.3451 34.4807 25.8094 33.8286 25.8094H14.5757C13.6214 25.8094 13.0357 25.1394 12.885 24.1187L12.6172 22.3608H33.8614C36.3057 22.3608 37.5614 20.8537 37.9129 18.4601L39.2522 9.60368C39.2877 9.39338 39.3101 9.18106 39.3193 8.96797C39.3193 8.1644 38.7164 7.61154 37.7957 7.61154H10.4579L10.1393 5.48583C9.97215 4.19654 9.50358 3.54297 7.79644 3.54297H1.9193C1.25001 3.54297 0.680725 4.13011 0.680725 4.80011C0.680725 5.48583 1.25001 6.07225 1.92001 6.07225H7.57787L10.2564 24.4537C10.6086 26.8308 11.8636 28.3208 14.2914 28.3208ZM36.4729 10.1394L35.2857 18.1587C35.1514 19.1965 34.5993 19.833 33.6114 19.833L12.25 19.8494L10.8264 10.1394H36.4729ZM15.6143 36.4573C15.9713 36.4602 16.3253 36.3921 16.6557 36.2568C16.9861 36.1216 17.2862 35.9219 17.5386 35.6695C17.7911 35.417 17.9907 35.1169 18.126 34.7865C18.2613 34.4561 18.3294 34.1021 18.3264 33.7451C18.328 33.3885 18.2588 33.0352 18.1231 32.7054C17.9873 32.3757 17.7876 32.0761 17.5354 31.824C17.2833 31.5718 16.9837 31.3721 16.654 31.2363C16.3242 31.1006 15.9709 31.0315 15.6143 31.033C14.0914 31.033 12.8857 32.2387 12.8857 33.7451C12.8857 35.2687 14.0914 36.4573 15.6143 36.4573ZM31.2672 36.4573C32.7907 36.4573 33.9957 35.2687 33.9957 33.7451C33.9957 32.238 32.7907 31.033 31.2672 31.033C29.7607 31.033 28.5386 32.2387 28.5386 33.7451C28.5386 35.2687 29.7607 36.4573 31.2672 36.4573Z" fill="white"/>
</svg>
