<svg width="47" height="42" viewBox="0 0 47 42" fill="none" xmlns="http://www.w3.org/2000/svg">
<path d="M0 32.6667H47V42H0V32.6667ZM9.9875 9.33333H16.45V7H9.4V0H28.2V7H21.15V9.33333H37.13C39.48 9.33333 41.83 11.6667 42.3 14L43.475 30.3333H3.525L4.8175 14C4.8175 11.6667 7.1675 9.33333 9.9875 9.33333ZM25.85 14V18.6667H37.6V14H25.85ZM9.4 14V16.3333H14.1V14H9.4ZM16.45 14V16.3333H21.15V14H16.45ZM9.4 18.6667V21H14.1V18.6667H9.4ZM16.45 18.6667V21H21.15V18.6667H16.45ZM9.4 23.3333V25.6667H14.1V23.3333H9.4ZM16.45 23.3333V25.6667H21.15V23.3333H16.45ZM11.75 2.33333V4.66667H25.85V2.33333H11.75Z" fill="#FFFDFD"/>
</svg>
