<svg width="40" height="40" viewBox="0 0 40 40" fill="none" xmlns="http://www.w3.org/2000/svg">
<path fill-rule="evenodd" clip-rule="evenodd" d="M20 38C29.941 38 38 29.941 38 20C38 10.059 29.941 2 20 2C10.059 2 2 10.059 2 20C2 29.941 10.059 38 20 38ZM20 40C31.046 40 40 31.046 40 20C40 8.954 31.046 0 20 0C8.954 0 0 8.954 0 20C0 31.046 8.954 40 20 40Z" fill="#0FA958"/>
<path fill-rule="evenodd" clip-rule="evenodd" d="M30.67 12.259C30.8667 12.4367 30.9848 12.6853 30.9984 12.9501C31.0119 13.2149 30.9197 13.4742 30.742 13.671L17.386 28.432L9.31003 20.723C9.12868 20.5377 9.02642 20.2891 9.0248 20.0299C9.02318 19.7706 9.12234 19.5208 9.30136 19.3332C9.48037 19.1456 9.72525 19.0349 9.98433 19.0244C10.2434 19.014 10.4964 19.1045 10.69 19.277L17.28 25.567L29.259 12.33C29.3472 12.2326 29.4537 12.1535 29.5724 12.0972C29.6911 12.041 29.8198 12.0087 29.951 12.0022C30.0822 11.9957 30.2135 12.0151 30.3372 12.0594C30.4609 12.1036 30.5747 12.1718 30.672 12.26" fill="#0FA958"/>
</svg>
