<svg width="83" height="34" viewBox="0 0 83 34" fill="none" xmlns="http://www.w3.org/2000/svg">
<g clip-path="url(#clip0_245_319)">
<path d="M58.8339 9.17597C61.1156 9.17597 62.8789 9.8158 64.2273 11.0955C65.5756 12.375 66.1977 14.0811 66.1977 16.2138V26.4505H63.2937V24.1048H63.19C61.9454 26.0243 60.1822 26.984 58.1078 26.984C56.3446 26.984 54.7888 26.4506 53.5443 25.3845C52.4034 24.3181 51.6773 22.8253 51.6773 21.2258C51.6773 19.5196 52.2998 18.1333 53.5443 17.067C54.7888 16.0006 56.5521 15.5741 58.6264 15.5741C60.4933 15.5741 61.9454 15.8941 63.0862 16.6405V15.8941C63.0862 14.8988 62.7249 13.9036 62.002 13.2551L61.8415 13.1216C61.0119 12.3751 59.9747 11.9486 58.8339 11.9486C57.0706 11.9486 55.7224 12.6951 54.7888 14.188L52.0923 12.4815C53.7516 10.2421 55.9297 9.17597 58.8339 9.17597ZM44.2097 1.92497C46.0707 1.92497 47.8393 2.5908 49.2534 3.83247L49.4993 4.05747C50.9513 5.33714 51.6773 7.25664 51.6773 9.28264C51.6773 11.3086 50.9513 13.1215 49.4993 14.5076C48.0472 15.894 46.284 16.6403 44.2097 16.6403L39.2313 16.5336V26.4506H36.1196V1.9248L44.2097 1.92497ZM59.2486 18.1333C58.0041 18.1333 56.9669 18.4531 56.1372 19.093C55.3074 19.6261 54.8925 20.3725 54.8925 21.3321C54.8925 22.1853 55.3075 22.9316 55.9297 23.3583C56.6558 23.8915 57.4855 24.2113 58.3153 24.2113C59.4768 24.2113 60.6385 23.7468 61.5471 22.9046L61.7379 22.7185C62.7751 21.7588 63.2937 20.5858 63.2937 19.3061C62.3603 18.5598 61.0118 18.1331 59.2487 18.1331L59.2486 18.1333ZM44.4172 4.91064H39.2313V13.4415H44.4172C45.558 13.4415 46.6989 13.015 47.425 12.162C49.0843 10.5625 49.0843 7.89664 47.5287 6.29697L47.425 6.19031C46.5951 5.33731 45.558 4.80414 44.417 4.9108L44.4172 4.91064ZM83 9.70914L72.732 33.915H69.6205L73.458 25.491L66.7163 9.8158H70.0353L74.91 21.8653H75.0137L79.7848 9.8158H83V9.70914Z" fill="#5F6368"/>
<path d="M26.8887 14.401C26.8887 13.4413 26.7849 12.4816 26.6812 11.522H13.7168V16.9603H21.0806C20.7695 18.6663 19.8361 20.2658 18.3841 21.2256V24.7445H22.8439C25.4368 22.292 26.8888 18.6663 26.8888 14.4011L26.8887 14.401Z" fill="#4285F4"/>
<path d="M13.7166 28.1569C17.4503 28.1569 20.5619 26.8772 22.8437 24.7446L18.3839 21.2257C17.1393 22.0787 15.5835 22.6119 13.7166 22.6119C10.1901 22.6119 7.07858 20.1594 6.04141 16.7471H1.47803V20.3726C3.86347 25.1711 8.53076 28.1569 13.7166 28.1569Z" fill="#34A853"/>
<path d="M6.04145 16.7469C5.41928 15.0408 5.41928 13.1214 6.04145 11.3086V7.68311H1.47807C-0.492691 11.6286 -0.492691 16.3204 1.47807 20.3724L6.04145 16.7469Z" fill="#FBBC04"/>
<path d="M13.7168 5.55072C15.6874 5.55072 17.5543 6.29722 19.0064 7.68339L22.9476 3.63139C20.4583 1.28539 17.1394 -0.100777 13.8204 0.00572341C8.63452 0.00572341 3.86364 2.99156 1.58179 7.79006L6.14533 11.4156C7.07875 8.00322 10.1903 5.55072 13.7168 5.55072Z" fill="#EA4335"/>
</g>
<defs>
<clipPath id="clip0_245_319">
<rect width="83" height="34" fill="white"/>
</clipPath>
</defs>
</svg>
