<svg width="24" height="24" viewBox="0 0 24 24" fill="none" xmlns="http://www.w3.org/2000/svg">
<path d="M20.413 3.89991L4.13203 10.2259L8.96103 12.2319C10.3725 12.8174 11.494 13.9392 12.079 15.3509L14.085 20.1789L20.413 3.89991ZM22.26 4.58191L15.932 20.8629C15.532 21.8929 14.381 22.4199 13.361 22.0429C13.1125 21.9511 12.8856 21.809 12.6946 21.6254C12.5036 21.4417 12.3526 21.2206 12.251 20.9759L10.244 16.1459C9.8536 15.2052 9.10589 14.4579 8.16503 14.0679L3.33703 12.0619C2.33303 11.6449 1.87503 10.4859 2.31403 9.47191C2.42188 9.22405 2.57768 8.99997 2.77247 8.81256C2.96726 8.62515 3.19719 8.47811 3.44903 8.37991L19.73 2.05191C20.0837 1.90977 20.4714 1.87469 20.8448 1.95103C21.2183 2.02737 21.5611 2.21176 21.8306 2.4813C22.1002 2.75084 22.2846 3.09364 22.3609 3.4671C22.4373 3.84056 22.4022 4.22822 22.26 4.58191Z" fill="white"/>
</svg>
