<svg width="40" height="40" viewBox="0 0 40 40" fill="none" xmlns="http://www.w3.org/2000/svg">
<path d="M12.222 27.7781C12.0345 27.5906 11.9292 27.3363 11.9292 27.0711C11.9292 26.806 12.0345 26.5516 12.222 26.3641L18.586 20.0001L12.222 13.6361C12.0398 13.4475 11.939 13.1949 11.9413 12.9327C11.9436 12.6705 12.0488 12.4197 12.2342 12.2343C12.4196 12.0489 12.6704 11.9437 12.9326 11.9414C13.1948 11.9392 13.4474 12.04 13.636 12.2221L20 18.5861L26.364 12.2221C26.5526 12.04 26.8052 11.9392 27.0674 11.9414C27.3296 11.9437 27.5804 12.0489 27.7658 12.2343C27.9512 12.4197 28.0564 12.6705 28.0587 12.9327C28.0609 13.1949 27.9601 13.4475 27.778 13.6361L21.414 20.0001L27.778 26.3641C27.9601 26.5527 28.0609 26.8053 28.0587 27.0675C28.0564 27.3297 27.9512 27.5805 27.7658 27.7659C27.5804 27.9513 27.3296 28.0565 27.0674 28.0588C26.8052 28.0611 26.5526 27.9603 26.364 27.7781L20 21.4141L13.636 27.7781C13.4485 27.9656 13.1942 28.0709 12.929 28.0709C12.6638 28.0709 12.4095 27.9656 12.222 27.7781Z" fill="#F2371E"/>
<path fill-rule="evenodd" clip-rule="evenodd" d="M20 40C31.046 40 40 31.046 40 20C40 8.954 31.046 0 20 0C8.954 0 0 8.954 0 20C0 31.046 8.954 40 20 40ZM20 38C29.941 38 38 29.941 38 20C38 10.059 29.941 2 20 2C10.059 2 2 10.059 2 20C2 29.941 10.059 38 20 38Z" fill="#F2371E"/>
</svg>
