<svg width="31" height="20" viewBox="0 0 31 20" fill="none" xmlns="http://www.w3.org/2000/svg">
<path d="M13.7438 0.532945C13.3286 0.1917 12.7654 0 12.1783 0C11.5911 0 11.028 0.1917 10.6128 0.532945L0.648323 8.72407C0.233202 9.06542 0 9.52833 0 10.011C0 10.4937 0.233202 10.9566 0.648323 11.2979L10.6128 19.489C11.0304 19.8206 11.5897 20.0041 12.1703 19.9999C12.7509 19.9958 13.3063 19.8044 13.7168 19.4669C14.1274 19.1294 14.3603 18.6728 14.3653 18.1956C14.3704 17.7183 14.1472 17.2585 13.7438 16.9152L7.74965 11.8312H28.7857C29.373 11.8312 29.9362 11.6395 30.3514 11.2981C30.7667 10.9567 31 10.4938 31 10.011C31 9.52823 30.7667 9.06524 30.3514 8.72388C29.9362 8.38252 29.373 8.19074 28.7857 8.19074H7.74965L13.7438 3.10678C14.1589 2.76543 14.3921 2.30253 14.3921 1.81986C14.3921 1.3372 14.1589 0.874292 13.7438 0.532945Z" fill="#354962"/>
</svg>
